<svg width="30" height="30" viewBox="0 0 30 30" fill="none" xmlns="http://www.w3.org/2000/svg">
<path fill-rule="evenodd" clip-rule="evenodd" d="M27 15C27 21.6275 21.6275 27 15 27C8.37258 27 3 21.6275 3 15C3 8.37258 8.37258 3 15 3C21.6275 3 27 8.37258 27 15ZM13.409 10.409C12.9697 10.8483 12.2574 10.8483 11.818 10.409C11.3787 9.96963 11.3787 9.25733 11.818 8.81798C13.5754 7.06062 16.4246 7.06062 18.1819 8.81798C19.9394 10.5753 19.9394 13.4246 18.1819 15.1819C17.5932 15.7707 16.8792 16.1634 16.125 16.3576V16.875C16.125 17.4963 15.6213 18 15 18C14.3787 18 13.875 17.4963 13.875 16.875V16.125C13.875 15.0445 14.7299 14.3674 15.497 14.1948C15.8973 14.1048 16.2774 13.9045 16.5911 13.5909C17.4696 12.7123 17.4696 11.2877 16.5911 10.409C15.7124 9.53029 14.2877 9.53029 13.409 10.409ZM15 22.5C15.8285 22.5 16.5 21.8284 16.5 21C16.5 20.1716 15.8285 19.5 15 19.5C14.1716 19.5 13.5 20.1716 13.5 21C13.5 21.8284 14.1716 22.5 15 22.5Z" fill="#ADAFB2"/>
</svg>
