<svg width="26" height="26" viewBox="0 0 26 26" fill="none" xmlns="http://www.w3.org/2000/svg">
<path fill-rule="evenodd" clip-rule="evenodd" d="M14.3 2.60901C14.3 1.89103 13.718 1.30901 13 1.30901C12.282 1.30901 11.7 1.89103 11.7 2.60901V10.409V11.059C11.7 11.418 11.409 11.709 11.05 11.709C10.691 11.709 10.4 11.418 10.4 11.059V10.409V3.90901C10.4 3.19103 9.81797 2.60901 9.09999 2.60901C8.38202 2.60901 7.79999 3.19103 7.79999 3.90901V10.409V11.059C7.79999 11.418 7.50898 11.709 7.14999 11.709C6.79101 11.709 6.49999 11.418 6.49999 11.059V10.409V6.50901C6.49999 5.79103 5.91797 5.20901 5.19999 5.20901C4.48202 5.20901 3.89999 5.79103 3.89999 6.50901V14.309V15.609C3.89999 20.6348 7.97421 24.709 13 24.709C18.0258 24.709 22.1 20.6348 22.1 15.609V14.309V10.409C22.1 9.69103 21.518 9.10901 20.8 9.10901C20.082 9.10901 19.5 9.69103 19.5 10.409V14.309V14.959C19.5 15.318 19.2089 15.609 18.85 15.609C18.4911 15.609 18.2 15.318 18.2 14.959V14.309V13.009V10.409V3.90901C18.2 3.19103 17.618 2.60901 16.9 2.60901C16.182 2.60901 15.6 3.19103 15.6 3.90901V10.409V11.059C15.6 11.418 15.3089 11.709 14.95 11.709C14.5911 11.709 14.3 11.418 14.3 11.059V10.409V2.60901Z" fill="#ADAFB2"/>
</svg>
