<svg width="26" height="26" viewBox="0 0 26 26" fill="none" xmlns="http://www.w3.org/2000/svg">
<path fill-rule="evenodd" clip-rule="evenodd" d="M10.4893 2.3642C10.5308 1.94885 10.8803 1.63254 11.2977 1.63254H14.7021C15.1196 1.63254 15.4691 1.94885 15.5106 2.3642L15.8124 5.38249C16.6876 5.70537 17.4918 6.17463 18.1954 6.76052L20.9625 5.51176C21.3431 5.34004 21.7917 5.48459 22.0004 5.84608L23.7026 8.79437C23.9114 9.15587 23.8121 9.6167 23.4733 9.86035L21.009 11.6318C21.0852 12.079 21.125 12.5386 21.125 13.0075C21.125 13.4766 21.0852 13.9363 21.009 14.3836L23.4733 16.1551C23.8121 16.3987 23.9114 16.8595 23.7026 17.2211L22.0004 20.1693C21.7917 20.5309 21.3431 20.6754 20.9625 20.5038L18.1951 19.2548C17.4915 19.8406 16.6874 20.3097 15.8124 20.6326L15.5106 23.6509C15.4691 24.0663 15.1196 24.3825 14.7021 24.3825H11.2977C10.8803 24.3825 10.5308 24.0663 10.4893 23.6509L10.1874 20.6326C9.31233 20.3097 8.50809 19.8404 7.8044 19.2546L5.03733 20.5033C4.65687 20.675 4.20819 20.5306 3.99948 20.169L2.29728 17.2208C2.08856 16.8592 2.18773 16.3984 2.52668 16.1547L4.99092 14.3833C4.91466 13.9361 4.87493 13.4765 4.87493 13.0075C4.87493 12.5385 4.91468 12.0787 4.99099 11.6315L2.52668 9.85998C2.18773 9.61633 2.08856 9.15549 2.29728 8.794L3.99948 5.84569C4.20819 5.4842 4.65687 5.33967 5.03733 5.51137L7.80469 6.76026C8.50832 6.17448 9.31246 5.70534 10.1874 5.38249L10.4893 2.3642ZM10.2009 14.6601L10.1662 14.6C9.90114 14.1294 9.74993 13.5861 9.74993 13.0075C9.74993 11.2126 11.205 9.75754 12.9999 9.75754C14.1915 9.75754 15.2333 10.3988 15.799 11.355L15.8337 11.415C16.0987 11.8856 16.2499 12.4289 16.2499 13.0075C16.2499 14.8025 14.7949 16.2575 12.9999 16.2575C11.8084 16.2575 10.7666 15.6163 10.2009 14.6601Z" fill="#ADAFB3"/>
</svg>
