<svg width="30" height="30" viewBox="0 0 30 30" fill="none" xmlns="http://www.w3.org/2000/svg">
<path d="M13.875 18.9551C13.875 19.5469 14.3787 20.0266 15 20.0266C15.6213 20.0266 16.125 19.5469 16.125 18.9551V6.64996L20.557 11.1193C20.9836 11.5495 21.6957 11.5689 22.1475 11.1626C22.5991 10.7563 22.6195 10.0782 22.1929 9.64799L15.8179 3.21941C15.6054 3.0051 15.3094 2.88364 15 2.88364C14.6905 2.88364 14.3946 3.0051 14.1821 3.21941L7.80711 9.64799C7.38049 10.0782 7.40083 10.7563 7.85254 11.1626C8.30425 11.5689 9.01627 11.5495 9.44289 11.1193L13.875 6.64996V18.9551Z" fill="#ADAFB3"/>
<path d="M5.25 18.2409C5.25 17.649 4.74632 17.1694 4.125 17.1694C3.50368 17.1694 3 17.649 3 18.2409V21.8123C3 23.9819 4.84683 25.7409 7.125 25.7409H22.875C25.1532 25.7409 27 23.9819 27 21.8123V18.2409C27 17.649 26.4963 17.1694 25.875 17.1694C25.2537 17.1694 24.75 17.649 24.75 18.2409V21.8123C24.75 22.7984 23.9106 23.598 22.875 23.598H7.125C6.08946 23.598 5.25 22.7984 5.25 21.8123V18.2409Z" fill="#ADAFB3"/>
</svg>
