<svg width="28" height="30" viewBox="0 0 28 30" fill="none" xmlns="http://www.w3.org/2000/svg">
<path d="M9.44999 11.8023C8.8701 11.8023 8.39999 12.282 8.39999 12.8737C8.39999 13.4654 8.8701 13.9451 9.44999 13.9451H15.75C16.3299 13.9451 16.8 13.4654 16.8 12.8737C16.8 12.282 16.3299 11.8023 15.75 11.8023H9.44999Z" fill="#ADAFB2"/>
<path fill-rule="evenodd" clip-rule="evenodd" d="M12.6 2.87371C7.1876 2.87371 2.79999 7.35086 2.79999 12.8737C2.79999 18.3966 7.1876 22.8737 12.6 22.8737C14.9275 22.8737 17.0668 22.0447 18.7475 20.6619L23.4076 25.417C23.8176 25.8354 24.4823 25.8354 24.8924 25.417C25.3025 24.9986 25.3025 24.3203 24.8924 23.9019L20.2324 19.1467C21.5876 17.4317 22.4 15.2487 22.4 12.8737C22.4 7.35086 18.0124 2.87371 12.6 2.87371ZM4.89999 12.8737C4.89999 8.53433 8.34739 5.01657 12.6 5.01657C16.8526 5.01657 20.3 8.53433 20.3 12.8737C20.3 15.0437 19.4393 17.0066 18.0447 18.4296C16.6502 19.8526 14.7266 20.7309 12.6 20.7309C8.34739 20.7309 4.89999 17.2131 4.89999 12.8737Z" fill="#ADAFB2"/>
</svg>
