<svg width="28" height="30" viewBox="0 0 28 30" fill="none" xmlns="http://www.w3.org/2000/svg">
<path d="M12.6 8.588C13.1799 8.588 13.65 9.06769 13.65 9.65943V11.8023H15.75C16.3299 11.8023 16.8 12.282 16.8 12.8737C16.8 13.4654 16.3299 13.9451 15.75 13.9451H13.65V16.088C13.65 16.6797 13.1799 17.1594 12.6 17.1594C12.0201 17.1594 11.55 16.6797 11.55 16.088V13.9451H9.44999C8.8701 13.9451 8.39999 13.4654 8.39999 12.8737C8.39999 12.282 8.8701 11.8023 9.44999 11.8023H11.55V9.65943C11.55 9.06769 12.0201 8.588 12.6 8.588Z" fill="#ADAFB2"/>
<path fill-rule="evenodd" clip-rule="evenodd" d="M2.79999 12.8737C2.79999 7.35086 7.1876 2.87371 12.6 2.87371C18.0124 2.87371 22.4 7.35086 22.4 12.8737C22.4 15.2487 21.5876 17.4317 20.2324 19.1467L24.8924 23.9019C25.3025 24.3203 25.3025 24.9986 24.8924 25.417C24.4823 25.8354 23.8176 25.8354 23.4076 25.417L18.7475 20.6619C17.0668 22.0447 14.9275 22.8737 12.6 22.8737C7.1876 22.8737 2.79999 18.3966 2.79999 12.8737ZM12.6 5.01657C8.34739 5.01657 4.89999 8.53433 4.89999 12.8737C4.89999 17.2131 8.34739 20.7309 12.6 20.7309C14.7266 20.7309 16.6502 19.8526 18.0447 18.4296C19.4393 17.0066 20.3 15.0437 20.3 12.8737C20.3 8.53433 16.8526 5.01657 12.6 5.01657Z" fill="#ADAFB2"/>
</svg>
