<svg width="28" height="30" viewBox="0 0 28 30" fill="none" xmlns="http://www.w3.org/2000/svg">
<path fill-rule="evenodd" clip-rule="evenodd" d="M12.6 5.01657C8.3474 5.01657 4.9 8.53433 4.9 12.8737C4.9 17.2131 8.3474 20.7309 12.6 20.7309C14.7266 20.7309 16.6502 19.8526 18.0447 18.4296C19.4393 17.0066 20.3 15.0437 20.3 12.8737C20.3 8.53433 16.8526 5.01657 12.6 5.01657ZM2.8 12.8737C2.8 7.35086 7.18762 2.87371 12.6 2.87371C18.0124 2.87371 22.4 7.35086 22.4 12.8737C22.4 15.2487 21.5876 17.4317 20.2324 19.1467L24.8924 23.9019C25.3025 24.3203 25.3025 24.9986 24.8924 25.417C24.4824 25.8354 23.8176 25.8354 23.4076 25.417L18.7475 20.6619C17.0668 22.0447 14.9275 22.8737 12.6 22.8737C7.18762 22.8737 2.8 18.3966 2.8 12.8737Z" fill="#ADAFB2"/>
</svg>
